<svg version="1.1" viewBox="0.0 0.0 535.1338582677165 554.5958005249344" fill="none" stroke="none" stroke-linecap="square" stroke-miterlimit="10" xmlns:xlink="http://www.w3.org/1999/xlink" xmlns="http://www.w3.org/2000/svg"><clipPath id="p.0"><path d="m0 0l535.13385 0l0 554.5958l-535.13385 0l0 -554.5958z" clip-rule="nonzero"/></clipPath><g clip-path="url(#p.0)"><path fill="#000000" fill-opacity="0.0" d="m0 0l535.13385 0l0 554.5958l-535.13385 0z" fill-rule="evenodd"/><path fill="#ffffff" d="m69.314964 277.2979l0 0c0 -109.49155 88.76043 -198.25198 198.25195 -198.25198l0 0c52.57968 0 103.00586 20.887207 140.1853 58.066666c37.179474 37.179443 58.06668 87.60562 58.06668 140.18532l0 0c0 109.491516 -88.76044 198.25195 -198.25198 198.25195l0 0c-109.49153 0 -198.25195 -88.76044 -198.25195 -198.25195z" fill-rule="evenodd"/><path fill="#000000" fill-opacity="0.0" d="m150.31453 155.46347l391.84253 0l0 342.58267l-391.84253 0z" fill-rule="evenodd"/><path fill="#000000" d="m192.64265 387.13535l0 -33.328125l-33.328125 0l0 -66.671875l33.328125 0l0 -33.328125l-33.328125 0l0 -66.671875l33.328125 0l0 -33.328125l133.32811 0l0 33.328125l33.328125 0l0 66.671875l-33.328125 0l0 33.328125l66.671875 0l0 66.671875l-33.34375 0l0 33.328125l-166.65623 0zm66.67186 -133.32812l66.65625 0l0 -66.671875l-99.999985 0l0 33.34375l33.343735 0l0 33.328125zm-66.67186 100.0l133.32811 0l0 -33.34375l-66.65625 0l0 -33.328125l-66.67186 0l0 66.671875z" fill-rule="nonzero"/><path fill="#000000" d="m245.62466 157.54593l39.62204 0l0 231.05511l-39.62204 0z" fill-rule="evenodd"/></g></svg>