<svg version="1.1" viewBox="0.0 0.0 535.1338582677165 554.5958005249344" fill="none" stroke="none" stroke-linecap="square" stroke-miterlimit="10" xmlns:xlink="http://www.w3.org/1999/xlink" xmlns="http://www.w3.org/2000/svg"><clipPath id="p.0"><path d="m0 0l535.13385 0l0 554.5958l-535.13385 0l0 -554.5958z" clip-rule="nonzero"/></clipPath><g clip-path="url(#p.0)"><path fill="#000000" fill-opacity="0.0" d="m0 0l535.13385 0l0 554.5958l-535.13385 0z" fill-rule="evenodd"/><path fill="#000000" fill-opacity="0.0" d="m88.15704 121.20362l391.84253 0l0 504.18896l-391.84253 0z" fill-rule="evenodd"/><path fill="#ffffff" d="m147.15704 464.2036l0 -50.0l-50.0 0l0 -100.0l50.0 0l0 -50.0l-50.0 0l0 -99.999985l50.0 0l0 -50.000008l200.0 0l0 50.000008l50.0 0l0 99.999985l-50.0 0l0 50.0l100.0 0l0 100.0l-50.0 0l0 50.0l-250.0 0zm100.0 -200.0l100.0 0l0 -99.999985l-150.0 0l0 50.0l50.0 0l0 49.999985zm-100.0 150.0l200.0 0l0 -50.0l-100.0 0l0 -50.0l-100.0 0l0 100.0z" fill-rule="nonzero"/><path fill="#ffffff" d="m240.89502 117.77165l39.62204 0l0 336.18896l-39.62204 0z" fill-rule="evenodd"/></g></svg>